#!OML:ASF E:\Steps\Project 1\Capture day 1\Session 2\Subject.ASF
:FULLY-SPECIFIED
:DEGREES
623
root 8.88942 19.2337 -3.04465 -157.633 -3.03321 180.093
lowerback -16.7683 -2.82842 -7.38368
upperback 2.42001 -2.1858 -1.12785
thorax 12.4228 -1.53186 2.32458
lowerneck -3.44562 -3.00251 -1.78864
upperneck 19.6893 -3.77916 5.85008
head 6.69225 -1.01848 1.97824
rclavicle -2.06736e-014 -1.43125e-014
rhumerus -42.8078 -16.3441 -75.435
rradius 33.4295
rwrist 0.0297201
rhand -7.29925 -54.0522
rfingers 7.12502
rthumb 18.583 -83.1846
lclavicle -2.06736e-014 -1.43125e-014
lhumerus -28.5086 3.17761 78.4379
lradius 35.5809
lwrist -1.46359
lhand -22.2676 -9.49784
lfingers 7.12502
lthumb 4.15033 20.4415
rfemur -81.9121 -1.82988 22.9297
rtibia 89.8727
rfoot -324.217 -85.3179
rtoes -42.1236
lfemur -33.3131 -8.15123 -20.9219
ltibia 25.4924
lfoot -12.5394 1.79019
ltoes -24.0556
624
root 8.88517 19.2424 -3.11117 -157.789 -3.27968 180.313
lowerback -16.9162 -2.89888 -7.1242
upperback 2.54336 -2.31844 -1.01289
thorax 12.6586 -1.58394 2.26041
lowerneck -3.74505 -3.05577 -1.7427
upperneck 20.0103 -3.83386 5.69726
head 6.84737 -1.03849 1.91759
rclavicle 3.97569e-015 -2.54444e-014
rhumerus -42.8173 -16.482 -75.3525
rradius 33.2439
rwrist 0.333071
rhand -6.99566 -54.605
rfingers 7.12502
rthumb 18.875 -83.7092
lclavicle 3.97569e-015 -2.54444e-014
lhumerus -28.4355 3.1509 78.5223
lradius 35.5332
lwrist -1.5808
lhand -22.3191 -9.58143
lfingers 7.12502
lthumb 4.10059 20.3589
rfemur -82.0506 -1.9517 23.1014
rtibia 89.2601
rfoot -370.767 -77.1841
rtoes -40.5567
lfemur -32.6912 -8.35693 -20.7093
ltibia 25.0981
lfoot -12.553 1.98263
ltoes -25.5222
625
root 8.88465 19.2495 -3.1647 -157.925 -3.44318 180.511
lowerback -16.819 -2.93926 -6.94453
upperback 2.58083 -2.42244 -0.903029
thorax 12.651 -1.6219 2.25529
lowerneck -3.6507 -3.08584 -1.98853
upperneck 19.9459 -3.89544 5.96508
head 6.82205 -1.06731 2.04173
rclavicle -6.36111e-015 -2.46493e-014
rhumerus -42.923 -16.7242 -75.1767
rradius 32.9723
rwrist 0.598596
rhand -7.29125 -54.5818
rfingers 7.12502
rthumb 18.5907 -83.7135
lclavicle -6.36111e-015 -2.46493e-014
lhumerus -28.5053 2.97935 78.6296
lradius 35.6075
lwrist -1.48419
lhand -22.4371 -9.66425
lfingers 7.12502
lthumb 3.98665 20.2782
rfemur -82.4335 -1.95019 23.2317
rtibia 88.2386
rfoot -378.278 -67.4112
rtoes -39.9483
lfemur -32.1893 -8.47693 -20.515
ltibia 24.7932
lfoot -12.5245 2.31512
ltoes -28.8691
626
root 8.88479 19.2561 -3.21401 -157.989 -3.47879 180.667
lowerback -16.7182 -2.95308 -6.80716
upperback 2.55545 -2.48374 -0.831565
thorax 12.5642 -1.63979 2.24537
lowerneck -3.62062 -3.10091 -2.21444
upperneck 19.9691 -3.93598 6.23659
head 6.83534 -1.07862 2.16587
rclavicle 3.97569e-016 7.15625e-015
rhumerus -43.101 -16.8687 -75.0009
rradius 32.6249
rwrist 0.710109
rhand -7.52171 -54.1774
rfingers 7.12502
rthumb 18.369 -83.3301
lclavicle 3.97569e-016 7.15625e-015
lhumerus -28.578 2.92306 78.6735
lradius 35.5491
lwrist -1.68237
lhand -22.4841 -9.84231
lfingers 7.12502
lthumb 3.94126 20.101
rfemur -83.111 -1.77761 23.2535
rtibia 87.1508
rfoot -381.085 -57.5904
rtoes -40.2122
lfemur -31.7754 -8.59635 -20.3353
ltibia 24.5045
lfoot -12.5636 2.65439
ltoes -30.0285
627
root 8.88403 19.2655 -3.26792 -158.099 -3.53739 180.751
lowerback -16.6708 -2.98194 -6.70851
upperback 2.60362 -2.54655 -0.788036
thorax 12.5949 -1.66415 2.22107
lowerneck -3.64975 -3.0292 -1.8967
upperneck 19.8278 -3.82693 5.91094
head 6.77803 -1.03998 2.0119
rclavicle -9.14409e-015 -2.8625e-014
rhumerus -43.1035 -17.1825 -74.7766
rradius 32.1272
rwrist 0.98513
rhand -7.39373 -53.4335
rfingers 7.12502
rthumb 18.4921 -82.5746
lclavicle -9.14409e-015 -2.8625e-014
lhumerus -28.6486 2.83358 78.7471
lradius 35.6071
lwrist -1.71429
lhand -22.3478 -9.87357
lfingers 7.12502
lthumb 4.07291 20.0672
rfemur -83.2049 -1.84699 23.2748
rtibia 85.0601
rfoot -381.756 -47.6448
rtoes -40.9434
lfemur -31.292 -8.68611 -20.2614
ltibia 24.259
lfoot -12.6765 2.82373
ltoes -29.5274
628
root 8.88225 19.2701 -3.3246 -158.201 -3.54498 180.707
lowerback -16.745 -2.9882 -6.77603
upperback 2.63778 -2.53604 -0.744477
thorax 12.6835 -1.66784 2.30666
lowerneck -3.68332 -3.07585 -1.8732
upperneck 19.9583 -3.87154 5.82068
head 6.82595 -1.05952 1.97685
rclavicle -1.51076e-014 -4.69132e-014
rhumerus -43.1794 -17.5735 -74.4273
rradius 31.7191
rwrist 1.25159
rhand -7.47249 -52.9388
rfingers 7.12502
rthumb 18.4164 -82.087
lclavicle -1.51076e-014 -4.69132e-014
lhumerus -28.7443 2.51576 79.001
lradius 35.6704
lwrist -1.50823
lhand -22.3782 -9.89065
lfingers 7.12502
lthumb 4.04358 20.0507
rfemur -83.521 -1.8543 23.0975
rtibia 83.2419
rfoot -381.526 -37.7418
rtoes -43.1628
lfemur -30.7782 -8.77659 -20.3919
ltibia 24.0007
lfoot -12.7101 3.05806
ltoes -30.7637
629
root 8.8845 19.2717 -3.37774 -158.215 -3.61904 180.808
lowerback -16.77 -3.02452 -6.75711
upperback 2.70117 -2.59304 -0.606443
thorax 12.784 -1.70006 2.4312
lowerneck -3.85522 -3.04694 -1.94535
upperneck 19.9605 -3.84096 5.83509
head 6.85741 -1.05162 1.99364
rclavicle -3.69739e-014 -4.92986e-014
rhumerus -43.0802 -17.7463 -74.2575
rradius 31.528
rwrist 1.44577
rhand -7.62332 -52.9777
rfingers 7.12502
rthumb 18.2713 -82.1396
lclavicle -3.69739e-014 -4.92986e-014
lhumerus -28.5231 2.52101 79.2196
lradius 35.5235
lwrist -1.70926
lhand -22.5106 -9.97773
lfingers 7.12502
lthumb 3.91576 19.966
rfemur -83.8986 -1.77641 23.046
rtibia 81.5002
rfoot -381.243 -27.6701
rtoes -45.3292
lfemur -30.4599 -8.85679 -20.294
ltibia 23.8074
lfoot -12.7011 3.23507
ltoes -32.6685
630
root 8.88921 19.2754 -3.43254 -158.35 -3.89672 180.928
lowerback -16.5685 -3.07606 -6.65808
upperback 2.6774 -2.70536 -0.53382
thorax 12.6469 -1.74394 2.43337
lowerneck -3.75233 -3.08959 -1.78062
upperneck 20.0943 -3.86602 5.65013
head 6.87701 -1.05692 1.90723
rclavicle 7.95139e-016 -2.78299e-014
rhumerus -43.3782 -17.9675 -74.1563
rradius 31.4718
rwrist 1.62085
rhand -7.6845 -52.9983
rfingers 7.12502
rthumb 18.2124 -82.1656
lclavicle 7.95139e-016 -2.78299e-014
lhumerus -28.6521 2.29197 79.2453
lradius 35.507
lwrist -1.80682
lhand -22.4896 -10.3069
lfingers 7.12502
lthumb 3.936 19.6365
rfemur -83.8986 -1.88946 23.0613
rtibia 79.6504
rfoot -384.168 -16.848
rtoes -42.2395
lfemur -30.0855 -8.96969 -20.131
ltibia 23.7531
lfoot -12.8181 3.02528
ltoes -32.4415
631
root 8.89229 19.2771 -3.48846 -158.499 -4.19211 180.919
lowerback -16.3816 -3.08558 -6.62493
upperback 2.66254 -2.74048 -0.531437
thorax 12.5208 -1.75517 2.41544
lowerneck -3.71048 -3.25304 -1.68739
upperneck 20.3077 -4.05092 5.46678
head 6.94102 -1.14044 1.82193
rclavicle -5.56597e-015 7.95139e-015
rhumerus -43.8095 -18.3359 -74.0116
rradius 31.5533
rwrist 1.61499
rhand -7.93771 -53.0686
rfingers 7.12502
rthumb 17.9688 -82.2585
lclavicle -5.56597e-015 7.95139e-015
lhumerus -28.7955 1.77098 79.3302
lradius 35.5395
lwrist -1.68927
lhand -22.453 -10.5321
lfingers 7.12502
lthumb 3.97138 19.4107
rfemur -83.8165 -2.1005 22.8946
rtibia 78.1598
rfoot -384.345 -16.0006
rtoes -41.6698
lfemur -29.7184 -9.1367 -20.1335
ltibia 23.7764
lfoot -12.992 2.91784
ltoes -32.3105
632
root 8.89198 19.276 -3.54436 -158.609 -4.25834 180.871
lowerback -16.3334 -3.08043 -6.64917
upperback 2.71411 -2.73106 -0.513948
thorax 12.5534 -1.75463 2.4515
lowerneck -3.25215 -3.19814 -1.63262
upperneck 19.7671 -3.98853 5.48754
head 6.6823 -1.13353 1.82345
rclavicle -2.8625e-014 -2.14687e-014
rhumerus -43.9623 -18.6113 -73.8742
rradius 31.5773
rwrist 1.70694
rhand -7.84004 -53.4471
rfingers 7.12502
rthumb 18.0627 -82.6284
lclavicle -2.8625e-014 -2.14687e-014
lhumerus -28.7187 1.65881 79.477
lradius 35.3813
lwrist -1.80891
lhand -22.4317 -10.5085
lfingers 7.12502
lthumb 3.9919 19.4339
rfemur -83.7911 -2.17958 22.6234
rtibia 76.8667
rfoot -386.021 -14.0895
rtoes -33.1776
lfemur -29.3758 -9.25003 -20.2308
ltibia 23.7977
lfoot -13.2465 3.05626
ltoes -32.9167
633
root 8.89121 19.274 -3.60474 -158.803 -4.16515 180.827
lowerback -16.2578 -3.08577 -6.70324
upperback 2.81492 -2.73041 -0.488061
thorax 12.6299 -1.76265 2.51071
lowerneck -3.33854 -3.19482 -1.80713
upperneck 19.8259 -4.0101 5.73276
head 6.7254 -1.13328 1.93017
rclavicle 9.93923e-015 -1.74931e-014
rhumerus -43.8429 -18.7489 -73.796
rradius 31.3319
rwrist 1.87734
rhand -7.57679 -53.7315
rfingers 7.12502
rthumb 18.316 -82.8892
lclavicle 9.93923e-015 -1.74931e-014
lhumerus -28.6188 1.85107 79.5992
lradius 35.1668
lwrist -2.05606
lhand -22.5231 -10.8033
lfingers 7.12502
lthumb 3.90366 19.1407
rfemur -83.648 -2.15469 22.3941
rtibia 75.4904
rfoot -384.874 -13.9376
rtoes -37.0513
lfemur -28.8255 -9.33785 -20.3435
ltibia 23.6942
lfoot -13.5518 2.93191
ltoes -30.7846
634
root 8.89412 19.2722 -3.66565 -158.966 -4.2746 180.837
lowerback -16.2186 -3.12549 -6.72307
upperback 2.92369 -2.78372 -0.411682
thorax 12.7438 -1.79594 2.59024
lowerneck -3.61565 -3.21723 -1.78374
upperneck 19.9264 -4.04217 5.62795
head 6.80559 -1.15377 1.88738
rclavicle 1.19271e-014 3.26007e-014
rhumerus -43.7679 -18.7086 -73.8286
rradius 31.3132
rwrist 1.73373
rhand -7.69976 -53.7464
rfingers 7.12502
rthumb 18.1977 -82.9152
lclavicle 1.19271e-014 3.26007e-014
lhumerus -28.5878 1.77301 79.7936
lradius 35.1796
lwrist -2.04079
lhand -22.6029 -10.6195
lfingers 7.12502
lthumb 3.82661 19.3259
rfemur -83.5057 -2.19751 22.2694
rtibia 74.2145
rfoot -385.395 -13.2505
rtoes -33.7251
lfemur -28.3329 -9.49419 -20.3123
ltibia 23.5516
lfoot -13.7707 2.58819
ltoes -26.6188
